PathFileType	4	(X/Y/Z)	/Users/itak/Documents/Research/Walk-IL/dataset/trc/00047_00004.trc
DataRate	CameraRate	NumFrames	NumMarkers	Units	OrigDataRate	OrigDataStartFrame	OrigNumFrames
100.000000	100.000000	4	53	mm	100.000000	192	512
Frame#	Time	RPSI			LPSI			L3			STRN			T10			C7			CLAV			RBAK			LBAK			LSHO			LUPA			LAEL			LAOL			LWTS			LWPS			LFRA			LIFD			LHPS			LHTS			RSHO			RUPA			RAEL			RAOL			RWTS			RWPS			RFRA			RIFD			RHTS			RHPS			RBHD			LFHD			RFHD			LBHD			LHIP			RHIP			RASI			LASI			LKNE			LTHI			LANK			LTIP			LTOE			LMT1			LMT5			LHEE			RKNE			RTHI			RANK			RTIP			RTOE			RMT1			RMT5			RHEE			
		X1	Y1	Z1	X2	Y2	Z2	X3	Y3	Z3	X4	Y4	Z4	X5	Y5	Z5	X6	Y6	Z6	X7	Y7	Z7	X8	Y8	Z8	X9	Y9	Z9	X10	Y10	Z10	X11	Y11	Z11	X12	Y12	Z12	X13	Y13	Z13	X14	Y14	Z14	X15	Y15	Z15	X16	Y16	Z16	X17	Y17	Z17	X18	Y18	Z18	X19	Y19	Z19	X20	Y20	Z20	X21	Y21	Z21	X22	Y22	Z22	X23	Y23	Z23	X24	Y24	Z24	X25	Y25	Z25	X26	Y26	Z26	X27	Y27	Z27	X28	Y28	Z28	X29	Y29	Z29	X30	Y30	Z30	X31	Y31	Z31	X32	Y32	Z32	X33	Y33	Z33	X34	Y34	Z34	X35	Y35	Z35	X36	Y36	Z36	X37	Y37	Z37	X38	Y38	Z38	X39	Y39	Z39	X40	Y40	Z40	X41	Y41	Z41	X42	Y42	Z42	X43	Y43	Z43	X44	Y44	Z44	X45	Y45	Z45	X46	Y46	Z46	X47	Y47	Z47	X48	Y48	Z48	X49	Y49	Z49	X50	Y50	Z50	X51	Y51	Z51	X52	Y52	Z52	X53	Y53	Z53	

193	1.92	-1026.99755859375	1046.717895507812	229.2866058349609	-1045.68017578125	1041.495361328125	67.47827911376953	-1038.783081054688	1106.161254882812	135.7872314453125	-799.1492919921875	1289.318115234375	130.5074310302734	-1053.0361328125	1250.813842773438	121.0343780517578	-986.8062133789062	1513.927734375	101.1160736083984	-835.6906127929688	1417.120971679688	121.7761535644531	-1052.616455078125	1383.301147460938	182.1260070800781	-1000.310546875	1470.987060546875	3.966662406921387	-893.1015625	1472.31396484375	-63.50436401367188	-924.8698120117188	1346.262084960938	-140.491455078125	-930.3488159179688	1127.196411132812	-163.8675537109375	-993.2491455078125	1118.148315429688	-78.61790466308594	-843.3589477539062	879.7183227539062	-91.77970886230469	-915.391357421875	861.2740478515625	-139.3797607421875	-916.83203125	1011.26611328125	-164.9252624511719	-812.7489624023438	697.9342651367188	-62.86344528198242	-878.937744140625	773.0031127929688	-132.7242584228516	-816.9644165039062	787.531494140625	-99.05446624755859	-925.5625610351562	1499.567993164062	283.1321411132812	-950.7457885742188	1433.642333984375	353.90771484375	-1016.966613769531	1173.945068359375	383.9859008789062	-1007.660400390625	1141.019897460938	289.5484619140625	-915.30322265625	900.2255249023438	379.7772521972656	-987.8457641601562	896.4086303710938	438.2001647949219	-1014.371276855469	1097.928344726562	404.8056945800781	-920.3666381835938	714.2271728515625	372.7536926269531	-898.1031494140625	789.171875	401.4054260253906	-957.8680419921875	792.5526123046875	445.4862976074219	-885.6212158203125	1687.125	24.15052795410156	-793.339599609375	1706.28759765625	221.2322387695312	-743.44873046875	1703.841552734375	136.5763092041016	-952.722900390625	1688.6103515625	152.4952392578125	-970.0399780273438	934.5975341796875	-48.212646484375	-895.7958374023438	940.0035400390625	319.8841552734375	-811.193115234375	971.1331176757812	229.2364044189453	-841.2346801757812	975.9813842773438	-3.747294664382935	-987.2638549804688	494.7484436035156	8.130879402160645	-989.5823974609375	632.8427734375	-25.5894660949707	-1189.505737304688	41.77871322631836	39.40010070800781	-1120.097290039062	281.5523071289062	8.392291069030762	-969.9426879882812	41.24768447875977	104.2628555297852	-1028.399536132812	52.91685104370117	116.1782684326172	-1066.143188476562	39.12876129150391	16.58584785461426	-1259.286499023438	56.12918853759766	90.93596649169922	-731.2171630859375	544.1128540039062	274.3360290527344	-828.1217651367188	790.6156616210938	314.6591491699219	-690.4328002929688	48.65547943115234	226.7100830078125	-714.2064208984375	416.5561218261719	269.2990112304688	-462.66259765625	99.73575592041016	223.0386199951172	-519.4357299804688	91.02862548828125	183.4513397216797	-551.1527099609375	77.19010162353516	273.9410705566406	-735.1881103515625	40.91618728637695	172.3657531738281	
194	1.93	-1020.613220214844	1045.203002929688	230.4085540771484	-1039.597045898438	1040.230102539062	68.61635589599609	-1032.60693359375	1104.880126953125	136.9235534667969	-792.6520385742188	1287.726684570312	131.8696746826172	-1046.617919921875	1249.56640625	122.1339111328125	-979.9933471679688	1512.6015625	102.3347549438477	-828.9985961914062	1415.593505859375	123.1903839111328	-1046.055419921875	1382.028564453125	183.2202911376953	-993.4088134765625	1469.721801757812	5.154329776763916	-886.1143798828125	1470.917846679688	-62.14910507202148	-917.7359008789062	1344.882202148438	-139.2561645507812	-922.73876953125	1125.768310546875	-162.6403961181641	-985.9476928710938	1116.597045898438	-77.63250732421875	-834.9896240234375	878.7747802734375	-90.08173370361328	-906.8809204101562	859.9462280273438	-137.9181823730469	-908.8671875	1009.893432617188	-163.6028442382812	-803.6796264648438	697.1776123046875	-60.92839813232422	-869.948974609375	771.8416748046875	-131.0515594482422	-808.0357055664062	786.8345947265625	-97.09634399414062	-918.9900512695312	1498.028686523438	284.4656372070312	-944.412353515625	1432.132202148438	355.1377258300781	-1011.44140625	1172.620483398438	384.8948669433594	-1002.032836914062	1139.722412109375	290.4696655273438	-910.5358276367188	898.6067504882812	380.732177734375	-983.2662353515625	894.9478759765625	438.9834899902344	-1009.164794921875	1096.593994140625	405.6433410644531	-916.05908203125	712.6400756835938	373.5920715332031	-893.759033203125	787.4843139648438	402.3140869140625	-953.5914916992188	790.9603271484375	446.2207946777344	-878.0814208984375	1685.7470703125	25.68316459655762	-786.79052734375	1704.5439453125	223.2581634521484	-736.5054321289062	1702.156372070312	138.8480682373047	-945.847900390625	1687.166015625	153.7058868408203	-964.1167602539062	933.5700073242188	-47.18953323364258	-889.3292846679688	938.326904296875	320.60205078125	-804.8565673828125	969.5319213867188	229.8776092529297	-835.3411865234375	974.7029418945312	-3.008543968200684	-983.2448120117188	493.8795471191406	8.117637634277344	-985.1260986328125	632.1138305664062	-25.21883583068848	-1189.431518554688	42.19159317016602	39.44696044921875	-1117.945922851562	281.5990295410156	8.482172012329102	-969.9839477539062	41.23662567138672	104.2773056030273	-1028.452880859375	52.89303207397461	116.2135162353516	-1066.081176757812	39.04769515991211	16.50887870788574	-1259.153442382812	57.30495452880859	90.87992095947266	-724.5376586914062	542.9988403320312	275.0200500488281	-821.7454223632812	789.032958984375	315.8099365234375	-676.47314453125	48.51395416259766	226.6524353027344	-706.3116455078125	415.9408874511719	269.8597106933594	-449.4725036621094	103.2092514038086	226.2570343017578	-505.5888061523438	93.75486755371094	185.8419952392578	-538.3134765625	79.04391479492188	275.8323974609375	-720.4053344726562	40.30374908447266	171.7122344970703	
195	1.94	-1014.094909667969	1043.724487304688	231.5836029052734	-1033.386108398438	1038.996215820312	69.80943298339844	-1026.26953125	1103.614868164062	138.1170959472656	-786.0009155273438	1286.129028320312	133.2913970947266	-1040.035278320312	1248.326171875	123.3121109008789	-973.015869140625	1511.286254882812	103.6651077270508	-822.157958984375	1414.063842773438	124.6902770996094	-1039.335205078125	1380.755615234375	184.4098052978516	-986.353271484375	1468.480346679688	6.446675777435303	-878.984130859375	1469.544677734375	-60.69708633422852	-910.459716796875	1343.527465820312	-137.9312744140625	-915.0062866210938	1124.365356445312	-161.3287963867188	-978.4993286132812	1115.076416015625	-76.55972290039062	-826.527587890625	877.824951171875	-88.31032562255859	-898.2887573242188	858.6398315429688	-136.3840484619141	-900.7755126953125	1008.5458984375	-162.1963958740234	-794.5735473632812	696.4061279296875	-58.91940689086914	-860.8953857421875	770.6952514648438	-129.3076324462891	-799.0213012695312	786.1464233398438	-95.06895446777344	-912.24072265625	1496.483276367188	285.9057312011719	-937.8928833007812	1430.602905273438	356.4703063964844	-1005.709655761719	1171.27001953125	385.8755187988281	-996.2017822265625	1138.405029296875	291.4638061523438	-905.5858154296875	896.9608764648438	381.713134765625	-978.4790649414062	893.461181640625	439.8069458007812	-1003.752014160156	1095.233032226562	406.5436706542969	-911.6044311523438	711.0210571289062	374.4234619140625	-889.1766357421875	785.7841796875	403.2272338867188	-949.0958251953125	789.3339233398438	446.9951782226562	-870.40478515625	1684.383056640625	27.3233757019043	-780.0927124023438	1702.809448242188	225.3915405273438	-729.412353515625	1700.48291015625	141.2290802001953	-938.835205078125	1685.728881835938	155.0263671875	-958.0210571289062	932.5597534179688	-46.11175537109375	-882.7616577148438	936.6434936523438	321.3672180175781	-798.3968505859375	967.9029541015625	230.5644073486328	-829.3040771484375	973.4266967773438	-2.218584299087524	-979.1318359375	493.0381774902344	8.091175079345703	-980.5880126953125	631.4200439453125	-24.8624382019043	-1189.316650390625	42.69879531860352	39.46175765991211	-1115.728759765625	281.7012634277344	8.53026294708252	-970.0216674804688	41.22391510009766	104.2942886352539	-1028.536987304688	52.87567520141602	116.3097534179688	-1066.002319335938	38.95913696289062	16.42071533203125	-1258.988525390625	58.59757614135742	90.77223205566406	-717.7670288085938	541.8521118164062	275.7640380859375	-815.2890625	787.4598388671875	316.8673706054688	-663.347900390625	48.31624603271484	226.4045715332031	-698.53515625	415.2233276367188	270.4563293457031	-437.1377258300781	106.2374725341797	229.6836547851562	-492.5281372070312	96.15898895263672	188.3519287109375	-526.425537109375	80.57079315185547	277.7684020996094	-706.3683471679688	39.72769546508789	170.8008270263672	
196	1.95	-1007.444030761719	1042.293212890625	232.8061370849609	-1027.035400390625	1037.806884765625	71.05490875244141	-1019.761413574219	1102.377197265625	139.3665313720703	-779.1942749023438	1284.538696289062	134.7796173095703	-1033.2861328125	1247.106323242188	124.5683135986328	-965.8712158203125	1509.994750976562	105.1103744506836	-815.1641235351562	1412.545776367188	126.2807998657227	-1032.453735351562	1379.494873046875	185.6979827880859	-979.1373901367188	1467.276245117188	7.848267078399658	-871.7036743164062	1468.20654296875	-59.14362716674805	-903.0357666015625	1342.210205078125	-136.5102691650391	-907.1533203125	1123.001342773438	-159.9300994873047	-970.904296875	1113.601440429688	-75.39466094970703	-817.9834594726562	876.879638671875	-86.46883392333984	-889.6168823242188	857.3675537109375	-134.7752075195312	-892.5606079101562	1007.237915039062	-160.7038726806641	-785.43115234375	695.6237182617188	-56.84751129150391	-851.7941284179688	769.5750732421875	-127.4975051879883	-789.9495849609375	785.45751953125	-92.99050903320312	-905.3154907226562	1494.943115234375	287.4558715820312	-931.1857299804688	1429.0634765625	357.9095764160156	-999.7698364257812	1169.902465820312	386.92626953125	-990.1578979492188	1137.080078125	292.5323181152344	-900.4588012695312	895.2976684570312	382.7174377441406	-973.4866943359375	891.9607543945312	440.6663513183594	-998.1198120117188	1093.853637695312	407.5122375488281	-907.044921875	709.3711547851562	375.2433471679688	-884.3865356445312	784.0645141601562	404.1454467773438	-944.3875122070312	787.6949462890625	447.8106079101562	-862.5908203125	1683.045532226562	29.07747459411621	-773.2435302734375	1701.095092773438	227.6353759765625	-722.1661376953125	1698.834716796875	143.7266387939453	-931.6801147460938	1684.304443359375	156.4582977294922	-951.7648315429688	931.5813598632812	-44.99014663696289	-876.0957641601562	934.9605712890625	322.1800842285156	-791.8171997070312	966.2626342773438	231.3053283691406	-823.1154174804688	972.1661987304688	-1.372026920318604	-974.916015625	492.2367248535156	8.057534217834473	-975.9484252929688	630.7774658203125	-24.51273918151855	-1189.159423828125	43.32043075561523	39.43411636352539	-1113.43896484375	281.8749084472656	8.53675651550293	-970.0537719726562	41.2098388671875	104.3111267089844	-1028.651977539062	52.86539459228516	116.4709167480469	-1065.904418945312	38.86572265625	16.3207950592041	-1258.7861328125	60.02043914794922	90.60898590087891	-710.8978881835938	540.6795043945312	276.56591796875	-808.7462768554688	785.9121704101562	317.8228454589844	-651.11669921875	48.02610778808594	225.9476776123047	-690.8759155273438	414.3999328613281	271.080322265625	-425.7124938964844	108.7359161376953	233.2535095214844	-480.3055114746094	98.16710662841797	190.9345397949219	-515.5477294921875	81.70838928222656	279.70458984375	-693.1412963867188	39.1578483581543	169.6272735595703	
